<?xml version="1.0" encoding="UTF-8" standalone="no"?>
<svg
   xmlns:dc="http://purl.org/dc/elements/1.1/"
   xmlns:cc="http://creativecommons.org/ns#"
   xmlns:rdf="http://www.w3.org/1999/02/22-rdf-syntax-ns#"
   xmlns:svg="http://www.w3.org/2000/svg"
   xmlns="http://www.w3.org/2000/svg"
   xmlns:sodipodi="http://sodipodi.sourceforge.net/DTD/sodipodi-0.dtd"
   xmlns:inkscape="http://www.inkscape.org/namespaces/inkscape"
   height="51.702759"
   id="svg3275"
   version="1.1"
   width="60"
   inkscape:version="0.48.4 r9939"
   sodipodi:docname="wpak-lady-bug.svg">
  <metadata
     id="metadata2999">
    <rdf:RDF>
      <cc:Work
         rdf:about="">
        <dc:format>image/svg+xml</dc:format>
        <dc:type
           rdf:resource="http://purl.org/dc/dcmitype/StillImage" />
        <dc:title></dc:title>
      </cc:Work>
    </rdf:RDF>
  </metadata>
  <sodipodi:namedview
     pagecolor="#ffffff"
     bordercolor="#666666"
     borderopacity="1"
     objecttolerance="10"
     gridtolerance="10"
     guidetolerance="10"
     inkscape:pageopacity="0"
     inkscape:pageshadow="2"
     inkscape:window-width="1366"
     inkscape:window-height="706"
     id="namedview2997"
     showgrid="false"
     fit-margin-top="0"
     fit-margin-left="0"
     fit-margin-right="0"
     fit-margin-bottom="0"
     inkscape:zoom="2.34"
     inkscape:cx="101.11111"
     inkscape:cy="17.841917"
     inkscape:window-x="-8"
     inkscape:window-y="-8"
     inkscape:window-maximized="1"
     inkscape:current-layer="svg3275" />
  <defs
     id="defs3277" />
  <g
     id="layer1"
     transform="matrix(0.11718406,0,0,0.11718406,8.8033773e-4,48.35072)"
     style="fill:#090a36;fill-opacity:1">
    <path
       d="m 130.94031,-412.60492 c 0,0 0.90173,46.30213 28.93469,60.92858 19.055,9.94213 36.9392,9.19287 46.46875,7.6875 0.49553,2.97787 1.39886,5.8508 2.65625,8.59375 -10.91691,9.13725 -17.81571,19.62038 -19.28125,26.46876 -7.52183,8.87331 -11.875,19.32098 -11.875,30.5 0,0.65222 0.0352,1.2695 0.0625,1.875 -8.5205,6.90676 -16.36875,14.87209 -23.40625,23.75 -3.47382,-4.55321 -6.51773,-9.15384 -8.03125,-12.9375 -4.87518,-12.18748 7.31388,-29.24845 1.21875,-40.21875 -6.09513,-10.97031 -53.656255,-36.56251 -53.656255,-36.56251 0,0 -4.87427,-3.65735 -12.1875,1.21875 -7.31322,4.8761 8.53125,14.625 8.53125,14.625 0,0 31.717475,9.74883 41.468755,23.15626 9.75128,13.40742 -8.53207,15.84303 -4.875,35.34375 1.65906,8.84665 9.32314,20.1704 17.21875,29.9375 -5.2865,8.39187 -9.94793,17.37995 -13.84375,26.875 -15.88076,1.57004 -41.377365,5.23651 -48.906255,12.96875 -11.18057,11.48163 10.15824,24.15708 -6.3125,27.71875 -16.47166,3.56167 -58.3125,-8.59375 -58.3125,-8.59375 0,0 -22.59998,-2.63958 -15.40625,5.15625 7.19003,7.79584 14.375,8.15625 14.375,8.15625 0,0 66.55924,10.50932 77.75,6.46875 11.188925,-4.04243 2.27426,-23.31109 12.406265,-28.9375 3.83831,-2.13092 10.88334,-3.73704 18.12499,-4.9375 -4.41637,15.04467 -7.07605,31.07295 -7.65624,47.71875 -12.97238,15.13941 -28.851905,36.28635 -31.687515,51.84375 -4.92149,26.99549 19.683715,30.34482 6.5625,48.90625 -13.12305,18.55864 -55.78125,32.0625 -55.78125,32.0625 0,0 -21.3108,13.49997 -11.46875,20.25 9.84206,6.75189 16.40625,1.6875 16.40625,1.6875 0,0 63.954705,-35.43998 72.156265,-50.625 8.20063,-15.18502 -8.21731,-38.78349 -1.65625,-55.65625 1.51842,-3.90484 4.21369,-8.45704 7.40625,-13.125 11.43855,78.86931 69.72555,138.90625 139.93749,138.90625 70.23088,0 128.5524,-60.06802 139.96875,-138.96875 3.21009,4.68823 5.91284,9.2666 7.4375,13.1875 6.56106,16.87276 -9.85687,40.46938 -1.65625,55.65625 8.20157,15.18502 72.15625,50.625 72.15625,50.625 0,0 6.5642,5.06438 16.40626,-1.6875 9.84205,-6.74818 -11.46875,-20.25 -11.46875,-20.25 0,0 -42.6582,-13.50201 -55.78125,-32.0625 -13.1212,-18.55958 11.48399,-21.91169 6.5625,-48.90625 -2.84088,-15.58634 -18.79574,-36.76116 -31.78125,-51.90625 -0.57319,-16.29593 -3.08806,-32.01405 -7.34375,-46.78125 5.40712,1.08143 10.31205,2.41409 13.28125,4.0625 10.13199,5.62641 1.21734,24.89506 12.40625,28.9375 11.19077,4.04057 77.75,-6.46875 77.75,-6.46875 0,0 7.18497,-0.36041 14.375,-8.15625 7.19373,-7.79584 -15.40625,-5.15625 -15.40625,-5.15625 0,0 -41.84083,12.15542 -58.3125,8.59375 -16.47075,-3.56168 4.86807,-16.23712 -6.3125,-27.71875 -6.81522,-6.99928 -28.3481,-10.64053 -44.15625,-12.4375 -3.56374,-8.76338 -7.74757,-17.10006 -12.5,-24.9375 8.56116,-10.27223 17.44901,-22.80768 19.25,-32.40625 3.65614,-19.50072 -14.62628,-21.93633 -4.875,-35.34375 9.74942,-13.40743 41.4375,-23.15626 41.4375,-23.15626 0,0 15.84355,-9.7489 8.53125,-14.625 -7.31231,-4.8761 -12.1875,-1.21875 -12.1875,-1.21875 0,0 -47.52894,25.5922 -53.625,36.56251 -6.09327,10.96938 6.09485,28.03127 1.21875,40.21875 -1.76948,4.42268 -5.61734,9.94662 -9.8125,15.21875 -7.48876,-9.80323 -15.93722,-18.5346 -25.1875,-26.03125 0.0313,-0.60552 0.0625,-1.22276 0.0625,-1.875 0,-11.29052 -4.43281,-21.81993 -12.09375,-30.75 0.33867,-0.50333 0.53125,-1.23309 0.53125,-2.25 0,-6.42082 -6.92216,-16.86288 -18.78126,-25.81251 0.65844,-1.68099 1.17916,-3.39115 1.5625,-5.15625 9.99526,1.17227 26.38641,0.98052 43.71876,-8.0625 28.03296,-14.62645 32.00281,-60.92858 32.00281,-60.92858 l -4.875,0 c 0,0 -12.50155,41.42768 -34.44031,53.61608 -13.67981,7.60003 -27.35751,7.6263 -35.71876,6.5625 -1.20527,-21.9499 -24.17027,-39.46875 -52.34375,-39.46875 -27.43264,0 -49.90997,16.61375 -52.1875,37.75 -7.69266,1.41775 -23.268,2.62557 -38.90625,-6.0625 -21.93876,-12.1884 -31.37219,-53.61608 -31.37219,-53.61608 z"
       id="path251"
       style="fill:#090a36;fill-opacity:1"
       inkscape:connector-curvature="0" />
  </g>
</svg>
